<svg width="89" height="82" fill="none" xmlns="http://www.w3.org/2000/svg"><rect x="2.081" y="2.118" width="85.367" height="60.28" rx="3.5" stroke="#05C2DF"/><path stroke="#05C2DF" d="M1.581 52.344h86.367"/><path stroke="#05C2DF" stroke-linecap="round" d="M40.522 57.61h7.952"/><path stroke="#05C2DF" d="M27.355 62.919h34.284v5.224H27.355zM16.823 74.41h55.349v5.224H16.823zM18.152 73.888l8.84-5.223h35.011l8.84 5.223h-52.69Z"/><path d="m25.08 13.977 8 22.364h.092l8-22.364h.773L33.625 37.25h-1l-8.318-23.273h.773ZM46.619 37.25V13.977h6.818c1.303 0 2.455.277 3.455.83a5.997 5.997 0 0 1 2.363 2.318c.576.992.864 2.155.864 3.489 0 1.318-.288 2.473-.864 3.465a6.02 6.02 0 0 1-2.363 2.307c-1 .546-2.152.819-3.455.819h-6.455v-.728h6.455c1.167 0 2.197-.242 3.09-.727a5.301 5.301 0 0 0 2.103-2.046c.508-.878.762-1.909.762-3.09 0-1.19-.254-2.228-.762-3.114a5.28 5.28 0 0 0-2.102-2.057c-.894-.492-1.924-.739-3.091-.739h-6.09V37.25h-.728Zm8.863-10.59 5.728 10.59h-.819l-5.727-10.59h.818Z" fill="#05C2DF"/></svg>