<svg width="18" height="18" fill="none" xmlns="http://www.w3.org/2000/svg"><path d="M1.443 10.786a4.778 4.778 0 0 0-.078.81c0 3.35 3.553 6.074 7.835 6.074 4.281 0 7.765-2.725 7.765-6.074 0-.275-.032-.544-.078-.81C17.56 10.413 18 9.676 18 8.835c0-1.218-.929-2.209-2.07-2.209-.523 0-1.013.209-1.389.573-1.301-.968-3.027-1.583-4.936-1.661l.99-4.099 2.234.834c.033 1.188.944 2.144 2.065 2.144 1.142 0 2.07-.99 2.07-2.208C16.965.99 16.037 0 14.895 0c-.796 0-1.48.487-1.827 1.191L9.874.001 8.533 5.548c-1.806.121-3.502.727-4.744 1.65A1.991 1.991 0 0 0 2.4 6.627c-1.142 0-2.07.99-2.07 2.209 0 .84.44 1.578 1.112 1.95Zm10.863-1.951c.856 0 1.553.743 1.553 1.656 0 .914-.697 1.657-1.553 1.657-.857 0-1.553-.743-1.553-1.656 0-.914.696-1.657 1.553-1.657Zm-.222 4.878.443.998c-.972.49-2.122.75-3.327.75-1.206 0-2.425-.26-3.397-.75l.443-.998c1.668.842 4.17.842 5.838 0Zm-6.06-4.878c.857 0 1.553.743 1.553 1.656 0 .914-.696 1.657-1.553 1.657-.856 0-1.553-.743-1.553-1.656 0-.914.697-1.657 1.553-1.657Z" fill="#fff"/></svg>