<svg width="112" height="82" fill="none" xmlns="http://www.w3.org/2000/svg"><path d="M49.093 18.175a21.982 21.982 0 0 1 4.204 12.983c0 12.208-9.932 22.14-22.14 22.14-12.209 0-22.141-9.932-22.141-22.14 0-12.209 9.932-22.141 22.14-22.141 4.691 0 9.174 1.45 12.965 4.192" stroke="#05C2DF" stroke-width="1.007" stroke-linejoin="round"/><path d="M31.158 40.013c-4.882 0-8.855-3.972-8.855-8.855 0-4.882 3.973-8.855 8.855-8.855 4.882 0 8.855 3.973 8.855 8.855 0 4.883-3.973 8.855-8.855 8.855ZM109.795 1c-9.252 0-16.779 7.527-16.779 16.779v8.743a14.375 14.375 0 0 0-5.946 3.495" stroke="#05C2DF" stroke-width="1.007"/><path d="M48.193 56.031a30.36 30.36 0 0 0 10.175-11.874m33.452 8.436a23.025 23.025 0 0 0-5.522-3.736l-.336-.162M83.274 36.35a14.408 14.408 0 0 0-.569 4v6.774l-1.72-.83a54.772 54.772 0 0 0-21.3-5.351 30.03 30.03 0 0 0 1.63-9.784c0-16.63-13.528-30.158-30.157-30.158C14.529 1.001 1 14.53 1 31.159c0 16.63 13.529 30.158 30.158 30.158 5.09 0 9.89-1.27 14.1-3.507 1.568 1.36 27.469 23.627 41.015 23.627.166 0 .331-.003.493-.01C100.322 80.86 110.57 69.745 111 69.272" stroke="#05C2DF" stroke-width="1.007"/></svg>