<svg width="264" height="27" fill="none" xmlns="http://www.w3.org/2000/svg"><path d="M13.652.332c3.912 0 7.038 1.218 9.378 3.654l-4.284 4.212c-1.38-1.476-3.174-2.214-5.382-2.214-2.028 0-3.69.69-4.986 2.07-1.296 1.38-1.944 3.162-1.944 5.346 0 2.328.666 4.17 1.998 5.526 1.344 1.356 2.994 2.034 4.95 2.034 3.54 0 5.664-1.518 6.372-4.554h-6.138v-4.644h12.096c.084.624.126 1.254.126 1.89 0 1.956-.336 3.75-1.008 5.382-.66 1.632-1.554 2.982-2.682 4.05a12.18 12.18 0 0 1-3.906 2.484 12.343 12.343 0 0 1-4.644.882c-1.86 0-3.612-.312-5.256-.936-1.632-.636-3.048-1.512-4.248-2.628-1.188-1.128-2.13-2.508-2.826-4.14C.584 17.102.242 15.32.242 13.4c0-2.52.57-4.77 1.71-6.75 1.14-1.992 2.73-3.54 4.77-4.644C8.762.89 11.072.332 13.652.332ZM48.672 26H29.376V.8H48.6v5.418H35.388v4.356h12.438v5.4H35.388v4.608h13.284V26ZM71.888 6.38h-7.452V26h-6.012V6.38h-7.47V.8h20.934v5.58ZM88.298 26h-6.012V.8h6.012V26Zm27.844 0h-5.778L98.88 10.628V26h-6.012V.8h5.76l11.484 15.372V.8h6.03V26Z" fill="#fff"/><path d="M137.6 26h6.12v-6.696l-6.12-6.12V26Zm-9.288-24.732v6.12h9.288v2.988l6.12 6.12V7.388h9.324v-6.12h-24.732Zm49.468 3.6c-2.34-2.34-5.436-3.636-8.748-3.636-2.772 0-5.4.9-7.596 2.592l-.432.36 4.356 4.356.324-.216a6.217 6.217 0 0 1 3.312-.936c1.656 0 3.204.648 4.392 1.836 1.188 1.188 1.836 2.736 1.836 4.392 0 1.188-.324 2.34-.936 3.312l-.216.324 4.356 4.356.36-.432a12.349 12.349 0 0 0 2.592-7.596c0-3.312-1.296-6.408-3.636-8.748l.036.036Zm-5.472 13.968a6.217 6.217 0 0 1-3.312.936c-1.656 0-3.204-.648-4.392-1.836-1.188-1.188-1.836-2.736-1.836-4.392 0-1.188.324-2.34.936-3.312l.216-.324-4.356-4.356-.36.432a12.349 12.349 0 0 0-2.592 7.596c0 3.312 1.296 6.408 3.636 8.748 2.34 2.34 5.436 3.636 8.748 3.636 2.772 0 5.4-.9 7.596-2.592l.432-.36-4.356-4.356-.36.18Zm31.288-17.568v12.384c0 1.656-.648 3.204-1.836 4.392a6.32 6.32 0 0 1-1.08.864l-.504.324 4.428 4.428.36-.252c1.44-1.116 2.628-2.592 3.456-4.248a12.301 12.301 0 0 0 1.296-5.544V1.232l-6.12.036Zm-5.832 18.54h-.432c-1.656 0-3.204-.648-4.392-1.836-1.188-1.188-1.836-2.736-1.836-4.392v-.684l-6.156-6.156v6.804c0 4.068 2.016 7.884 5.364 10.188a12.317 12.317 0 0 0 6.984 2.16c1.692 0 3.312-.324 4.86-.972l.684-.288-4.896-4.896-.18.072ZM191.068 1.16h-6.156v2.772l6.156 6.156V1.16Zm29.236 9.252a6.99 6.99 0 0 1 1.224-1.692 6.429 6.429 0 0 1 9.144 0 6.28 6.28 0 0 1 1.404 2.088l.144.288h6.48l-.144-.612a12.633 12.633 0 0 0-4.392-7.092 12.784 12.784 0 0 0-8.028-2.844c-4.176 0-8.1 2.052-10.476 5.472l-.252.324 4.644 4.644.252-.576Zm11.736 5.292a6.28 6.28 0 0 1-1.404 2.088 6.99 6.99 0 0 1-1.692 1.224c-.18.108-.36.18-.576.252a6.93 6.93 0 0 1-1.908.396c-.288 0-.612 0-.9-.036a6.35 6.35 0 0 1-4.032-1.836 6.35 6.35 0 0 1-1.836-4.032v-.18l-5.328-5.328-.252.756a13.159 13.159 0 0 0-.72 4.248c0 3.384 1.332 6.588 3.744 9s5.616 3.744 9 3.744c1.728 0 3.384-.324 4.968-.972.288-.108.576-.252.864-.396a12.735 12.735 0 0 0 4.212-3.492 12.599 12.599 0 0 0 2.376-5.004l.144-.612h-6.48l-.18.18ZM242.183 26h6.12v-8.604l-6.12-6.12V26Zm15.444-24.732v9.324h-4.68l-4.644-4.644v-4.68h-6.12v7.236l8.244 8.244h7.2v9.288h6.12V1.304l-6.12-.036Z" fill="#05C2DF"/></svg>