<svg width="451" height="94" fill="none" xmlns="http://www.w3.org/2000/svg"><path d="M27.324 7.93h-9.522V33H10.12V7.93H.575V.8h26.749v7.13Zm11.175 5.267h13.547V.8h7.682V33h-7.681V20.304H38.5V33h-7.683V.8H38.5v12.397ZM90.243 33H65.587V.8h24.564v6.923H73.269v5.566h15.893v6.9H73.269v5.888h16.974V33Zm45.333 0h-7.383l-14.674-19.642V33h-7.682V.8h7.36l14.674 19.642V.8h7.705V33Zm30.495 0h-24.656V.8h24.564v6.923h-16.882v5.566h15.893v6.9h-15.893v5.888h16.974V33Zm42.614 0h-9.154l-6.072-20.769L187.387 33h-9.154L168.849.8h7.935l6.141 23.069L189.365.8h8.303l6.44 23.115L210.249.8h7.82L208.685 33Zm45.251-23.069c-3.098-1.81-6.172-2.714-9.223-2.714-1.518 0-2.745.253-3.68.759-.92.506-1.38 1.219-1.38 2.139 0 .322.069.613.207.874.138.26.383.498.736.713.368.2.69.368.966.506.291.123.766.26 1.426.414.674.138 1.18.238 1.518.299l1.771.322 1.334.23c3.25.567 5.757 1.618 7.521 3.151 1.778 1.533 2.668 3.573 2.668 6.118 0 1.487-.253 2.844-.759 4.071-.491 1.211-1.158 2.231-2.001 3.059-.844.828-1.848 1.526-3.013 2.093-1.15.567-2.377.981-3.68 1.242-1.288.26-2.638.391-4.048.391-2.73 0-5.344-.353-7.843-1.058-2.484-.705-4.593-1.717-6.325-3.036l3.841-6.256c3.327 2.254 6.792 3.381 10.396 3.381 1.502 0 2.729-.253 3.68-.759.95-.521 1.426-1.265 1.426-2.231 0-.383-.092-.72-.276-1.012a2.414 2.414 0 0 0-.736-.736c-.307-.2-.752-.383-1.334-.552a16.67 16.67 0 0 0-1.725-.414c-.583-.123-1.35-.26-2.3-.414l-1.61-.253c-3.389-.537-5.934-1.595-7.636-3.174-1.702-1.595-2.523-3.81-2.461-6.647.061-3.097 1.288-5.574 3.68-7.429 2.392-1.855 5.489-2.783 9.292-2.783 2.33 0 4.492.245 6.486.736 2.008.49 4.178 1.38 6.509 2.668l-3.427 6.302Zm32.632-2.001h-9.522V33h-7.682V7.93h-9.545V.8h26.749v7.13ZM317.837 33h-8.188l-2.438-6.762h-12.788L291.985 33h-8.027L296.309.8h9.177L317.837 33Zm-20.93-13.708h7.82l-3.91-10.856-3.91 10.856ZM335.02.8c3.94 0 6.953.912 9.039 2.737 2.1 1.825 3.151 4.347 3.151 7.567 0 2.56-.782 4.692-2.346 6.394-1.564 1.687-3.78 2.76-6.647 3.22L347.463 33h-9.154l-8.487-12.052h-1.127V33h-7.682V.8h14.007Zm-6.325 6.969v6.716h6.233c1.426 0 2.522-.284 3.289-.851.782-.567 1.173-1.41 1.173-2.53 0-1.12-.391-1.955-1.173-2.507s-1.879-.828-3.289-.828h-6.233Zm47.537.161h-9.522V33h-7.682V7.93h-9.545V.8h26.749v7.13Zm22.073-6.463c2.116-.843 4.4-1.265 6.854-1.265 2.453 0 4.73.422 6.831 1.265 2.116.843 3.91 2.001 5.382 3.473 1.487 1.457 2.652 3.22 3.496 5.29.843 2.07 1.265 4.293 1.265 6.67s-.422 4.6-1.265 6.67c-.844 2.07-2.009 3.841-3.496 5.313-1.472 1.457-3.266 2.607-5.382 3.45-2.101.843-4.378 1.265-6.831 1.265-2.454 0-4.738-.422-6.854-1.265-2.101-.843-3.895-1.993-5.382-3.45-1.472-1.472-2.63-3.243-3.473-5.313-.844-2.07-1.265-4.293-1.265-6.67s.421-4.6 1.265-6.67c.843-2.07 2.001-3.833 3.473-5.29 1.487-1.472 3.281-2.63 5.382-3.473Zm13.294 8.694c-1.672-1.733-3.818-2.599-6.44-2.599-2.622 0-4.777.866-6.463 2.599-1.672 1.733-2.507 3.979-2.507 6.739s.835 5.006 2.507 6.739c1.686 1.733 3.841 2.599 6.463 2.599s4.768-.866 6.44-2.599c1.686-1.733 2.53-3.979 2.53-6.739s-.844-5.006-2.53-6.739Zm38.255 10.534h-15.548V33h-7.682V.8h24.334v6.923h-16.652v6.026h15.548v6.946Z" fill="#fff"/><path d="M10.948 60.524H2.3L17.71 93l4.186-8.786.138-.276-7.222-15.272-3.864-8.142Zm13.524.046-5.198 10.994-.138.276 4.324 9.154.828-1.702 8.878-18.722h-8.694Zm33.374 20.562h.506a9.712 9.712 0 0 0 6.716-2.852c1.748-1.748 2.76-4.094 2.852-6.624.046-.322.046-.644.046-.966 0-.736-.092-1.472-.276-2.162-.414-1.656-1.242-3.174-2.438-4.37a9.218 9.218 0 0 0-4.692-2.53 7.922 7.922 0 0 0-1.794-.184H37.652V72.99l7.82 7.82v-.046l12.144 12.098.184.184h12.144L57.846 81.132Zm-.552-7.774h-7.498l-3.726-3.726h13.708l.138.414a.583.583 0 0 1 .046.276v.276c0 .414-.092.782-.23 1.15l-.138.276c0 .046 0 .092-.046.138l-.138.138-.138.138a2.74 2.74 0 0 1-.966.644l-.414.138c-.184.046-.368.046-.552.046l-.046.092Zm-19.55 19.596h7.82V84.26l-7.82-7.82v16.514Zm67.638-7.774h-1.196V61.398h-7.82V93h16.836l-7.636-7.636-.184-.184Zm3.588 0 7.82 7.82h1.564v-7.82h-9.384Zm40.992-19.182c-2.99-2.99-6.946-4.646-11.178-4.646-3.542 0-6.9 1.15-9.706 3.312l-.552.46 5.566 5.566.414-.276a7.944 7.944 0 0 1 4.232-1.196c2.116 0 4.094.828 5.612 2.346 1.518 1.518 2.346 3.496 2.346 5.612 0 1.518-.414 2.99-1.196 4.232l-.276.414 5.566 5.566.46-.552a15.779 15.779 0 0 0 3.312-9.706c0-4.232-1.656-8.188-4.646-11.178l.046.046Zm-6.992 17.848a7.944 7.944 0 0 1-4.232 1.196c-2.116 0-4.094-.828-5.612-2.346-1.518-1.518-2.346-3.496-2.346-5.612 0-1.518.414-2.99 1.196-4.232l.276-.414-5.566-5.566-.46.552a15.779 15.779 0 0 0-3.312 9.706c0 4.232 1.656 8.188 4.646 11.178s6.946 4.646 11.178 4.646c3.542 0 6.9-1.15 9.706-3.312l.552-.46-5.566-5.566-.46.23Zm25.121-10.764c.414-.782.92-1.518 1.564-2.162 1.564-1.564 3.634-2.438 5.842-2.438 2.208 0 4.278.874 5.842 2.438a8.025 8.025 0 0 1 1.794 2.668l.184.368h8.28l-.184-.782a16.142 16.142 0 0 0-5.612-9.062 16.335 16.335 0 0 0-10.258-3.634 16.32 16.32 0 0 0-13.386 6.992l-.322.414 5.934 5.934.322-.736Zm14.996 6.762a8.025 8.025 0 0 1-1.794 2.668c-.644.644-1.38 1.15-2.162 1.564-.23.138-.46.23-.736.322-.782.276-1.61.46-2.438.506-.368 0-.782 0-1.15-.046a8.115 8.115 0 0 1-5.152-2.346 8.115 8.115 0 0 1-2.346-5.152v-.23l-6.808-6.808-.322.966a16.814 16.814 0 0 0-.92 5.428c0 4.324 1.702 8.418 4.784 11.5 3.082 3.082 7.176 4.784 11.5 4.784 2.208 0 4.324-.414 6.348-1.242.368-.138.736-.322 1.104-.506a16.272 16.272 0 0 0 5.382-4.462c1.472-1.886 2.53-4.094 3.036-6.394l.184-.782h-8.28l-.23.23Zm39.963-13.846c-2.99-2.99-6.946-4.646-11.178-4.646-3.542 0-6.9 1.15-9.706 3.312l-.552.46 5.566 5.566.414-.276a7.944 7.944 0 0 1 4.232-1.196c2.116 0 4.094.828 5.612 2.346 1.518 1.518 2.346 3.496 2.346 5.612 0 1.518-.414 2.99-1.196 4.232l-.276.414 5.566 5.566.46-.552a15.779 15.779 0 0 0 3.312-9.706c0-4.232-1.656-8.188-4.646-11.178l.046.046Zm-6.992 17.848a7.944 7.944 0 0 1-4.232 1.196c-2.116 0-4.094-.828-5.612-2.346-1.518-1.518-2.346-3.496-2.346-5.612 0-1.518.414-2.99 1.196-4.232l.276-.414-5.566-5.566-.46.552a15.779 15.779 0 0 0-3.312 9.706c0 4.232 1.656 8.188 4.646 11.178s6.946 4.646 11.178 4.646c3.542 0 6.9-1.15 9.706-3.312l.552-.46-5.566-5.566-.46.23ZM232.255 93h7.82V82.65l-7.82-7.82V93Zm30.36-31.602L248.033 75.98l-14.582-14.582h-1.242v9.844l7.82 7.82 7.958 8.004 7.958-8.004V93h7.82V61.398h-1.15Zm32.849 4.6c-2.99-2.99-6.946-4.646-11.178-4.646-3.542 0-6.9 1.15-9.706 3.312l-.552.46 5.566 5.566.414-.276a7.944 7.944 0 0 1 4.232-1.196c2.116 0 4.094.828 5.612 2.346 1.518 1.518 2.346 3.496 2.346 5.612 0 1.518-.414 2.99-1.196 4.232l-.276.414 5.566 5.566.46-.552a15.779 15.779 0 0 0 3.312-9.706c0-4.232-1.656-8.188-4.646-11.178l.046.046Zm-6.992 17.848a7.944 7.944 0 0 1-4.232 1.196c-2.116 0-4.094-.828-5.612-2.346-1.518-1.518-2.346-3.496-2.346-5.612 0-1.518.414-2.99 1.196-4.232l.276-.414-5.566-5.566-.46.552a15.779 15.779 0 0 0-3.312 9.706c0 4.232 1.656 8.188 4.646 11.178s6.946 4.646 11.178 4.646c3.542 0 6.9-1.15 9.706-3.312l.552-.46-5.566-5.566-.46.23ZM312.854 93h7.82v-8.556l-7.82-7.82V93Zm-11.868-31.602v7.82h11.868v3.818l7.82 7.82V69.218h11.914v-7.82h-31.602Zm36.207 0v3.91l7.82 7.82v-11.73h-7.82Zm0 31.602h7.82V76.716l-7.82-7.82V93Zm39.4-27.002c-2.99-2.99-6.946-4.646-11.178-4.646-3.542 0-6.9 1.15-9.706 3.312l-.552.46 5.566 5.566.414-.276a7.944 7.944 0 0 1 4.232-1.196c2.116 0 4.094.828 5.612 2.346 1.518 1.518 2.346 3.496 2.346 5.612 0 1.518-.414 2.99-1.196 4.232l-.276.414 5.566 5.566.46-.552a15.779 15.779 0 0 0 3.312-9.706c0-4.232-1.656-8.188-4.646-11.178l.046.046Zm-6.992 17.848a7.944 7.944 0 0 1-4.232 1.196c-2.116 0-4.094-.828-5.612-2.346-1.518-1.518-2.346-3.496-2.346-5.612 0-1.518.414-2.99 1.196-4.232l.276-.414-5.566-5.566-.46.552a15.779 15.779 0 0 0-3.312 9.706c0 4.232 1.656 8.188 4.646 11.178s6.946 4.646 11.178 4.646c3.542 0 6.9-1.15 9.706-3.312l.552-.46-5.566-5.566-.46.23ZM385.798 93h7.82V82.65l-7.82-7.82V93Zm21.482-24.84-.184.184V81.5l-19.872-19.872-.184-.184h-1.242v9.844l7.82 7.82 5.014 5.014 8.602 8.602.322.322h7.36V60.524l-7.636 7.636Z" fill="#05C2DF"/></svg>