<svg width="40" height="37" fill="none" xmlns="http://www.w3.org/2000/svg"><path d="m20.5 37-3.897-4.5h7.794L20.5 37ZM1.278 6.364H3.41l3.705 9.045h.136l3.704-9.045h2.131V18h-1.67V9.58h-.108l-3.432 8.403H6.489l-3.432-8.41h-.108V18h-1.67V6.364Zm17.9 11.812c-.819 0-1.533-.187-2.143-.562a3.793 3.793 0 0 1-1.42-1.574c-.337-.674-.506-1.462-.506-2.364 0-.905.169-1.697.506-2.375a3.786 3.786 0 0 1 1.42-1.58c.61-.374 1.324-.562 2.143-.562.818 0 1.532.188 2.142.563.61.375 1.083.901 1.42 1.58.337.677.506 1.469.506 2.374 0 .902-.169 1.69-.506 2.364a3.793 3.793 0 0 1-1.42 1.574c-.61.375-1.324.562-2.142.562Zm.005-1.426c.53 0 .97-.14 1.318-.42.349-.28.607-.654.773-1.12.17-.466.256-.979.256-1.54 0-.556-.085-1.068-.256-1.534a2.499 2.499 0 0 0-.773-1.13c-.348-.284-.788-.427-1.318-.427-.534 0-.977.143-1.33.427a2.538 2.538 0 0 0-.778 1.13c-.166.466-.25.978-.25 1.535 0 .56.084 1.073.25 1.54.17.465.43.838.779 1.118.352.28.795.421 1.33.421ZM25.142 18V9.273h1.642v1.386h.091c.16-.47.44-.839.84-1.108.406-.273.864-.409 1.376-.409a7.254 7.254 0 0 1 .721.04v1.625a3.05 3.05 0 0 0-.363-.063 3.473 3.473 0 0 0-.523-.04c-.401 0-.76.086-1.074.256a1.9 1.9 0 0 0-1.011 1.71V18h-1.699Zm9.59.176c-.86 0-1.6-.184-2.222-.551a3.738 3.738 0 0 1-1.432-1.563c-.333-.674-.5-1.464-.5-2.369 0-.894.167-1.682.5-2.364a3.882 3.882 0 0 1 1.41-1.596c.605-.383 1.314-.574 2.124-.574.493 0 .97.082 1.432.244.462.163.877.419 1.244.768.368.348.658.8.87 1.357.212.553.318 1.226.318 2.018v.602h-6.938v-1.273h5.273c0-.447-.09-.843-.273-1.188a2.063 2.063 0 0 0-.767-.823c-.325-.201-.708-.302-1.147-.302-.478 0-.894.118-1.25.353a2.364 2.364 0 0 0-.819.909c-.189.371-.284.774-.284 1.21v.994c0 .584.103 1.08.307 1.489.208.41.498.722.87.938.37.212.804.318 1.3.318.323 0 .616-.046.881-.137.265-.094.495-.235.688-.42.193-.186.34-.415.443-.688l1.608.29c-.129.474-.36.888-.693 1.245a3.36 3.36 0 0 1-1.245.823c-.496.194-1.062.29-1.699.29Z" fill="#05C2DF"/></svg>