<svg width="359" height="27" fill="none" xmlns="http://www.w3.org/2000/svg"><path d="M23.56 26h-5.778L6.298 10.628V26H.286V.8h5.76L17.53 16.172V.8h6.03V26Zm10.582 0H28.13V.8h6.012V26ZM50.934.332c2.424 0 4.626.534 6.606 1.602 1.98 1.068 3.51 2.556 4.59 4.464l-5.274 3.024c-1.356-2.22-3.354-3.33-5.994-3.33-2.004 0-3.66.684-4.968 2.052-1.308 1.356-1.962 3.108-1.962 5.256 0 2.256.666 4.038 1.998 5.346 1.344 1.308 2.994 1.962 4.95 1.962 2.58 0 4.608-1.104 6.084-3.312l4.932 3.492a12.115 12.115 0 0 1-4.59 4.104c-1.884.984-4.008 1.476-6.372 1.476-1.92 0-3.702-.324-5.346-.972-1.644-.648-3.048-1.542-4.212-2.682-1.152-1.152-2.058-2.538-2.718-4.158-.66-1.62-.99-3.372-.99-5.256 0-1.884.33-3.636.99-5.256.66-1.62 1.566-3 2.718-4.14 1.164-1.152 2.568-2.052 4.212-2.7 1.644-.648 3.426-.972 5.346-.972ZM84.797 26H65.5V.8h19.224v5.418H71.513v4.356H83.95v5.4H71.513v4.608h13.284V26Zm30.88-19.62h-7.452V26h-6.012V6.38h-7.47V.8h20.934v5.58Zm8.696-5.058c1.656-.66 3.444-.99 5.364-.99s3.702.33 5.346.99c1.656.66 3.06 1.566 4.212 2.718 1.164 1.14 2.076 2.52 2.736 4.14.66 1.62.99 3.36.99 5.22 0 1.86-.33 3.6-.99 5.22-.66 1.62-1.572 3.006-2.736 4.158-1.152 1.14-2.556 2.04-4.212 2.7-1.644.66-3.426.99-5.346.99s-3.708-.33-5.364-.99c-1.644-.66-3.048-1.56-4.212-2.7-1.152-1.152-2.058-2.538-2.718-4.158-.66-1.62-.99-3.36-.99-5.22 0-1.86.33-3.6.99-5.22.66-1.62 1.566-3 2.718-4.14 1.164-1.152 2.568-2.058 4.212-2.718Zm10.404 6.804c-1.308-1.356-2.988-2.034-5.04-2.034s-3.738.678-5.058 2.034c-1.308 1.356-1.962 3.114-1.962 5.274s.654 3.918 1.962 5.274c1.32 1.356 3.006 2.034 5.058 2.034s3.732-.678 5.04-2.034c1.32-1.356 1.98-3.114 1.98-5.274s-.66-3.918-1.98-5.274ZM183.116 26h-6.012V8.756l-5.04 14.868h-6.39l-5.04-14.814V26h-6.012V.8h8.514l5.742 16.002L174.584.8h8.532V26ZM207 26h-19.296V.8h19.224v5.418h-13.212v4.356h12.438v5.4h-12.438v4.608H207V26Zm23.414 0h-19.296V.8h19.224v5.418H217.13v4.356h12.438v5.4H217.13v4.608h13.284V26ZM253.63 6.38h-7.452V26h-6.012V6.38h-7.47V.8h20.934v5.58Z" fill="#fff"/><path d="M277.186 26h6.12v-2.16l-6.12-6.12V26ZM288.31 1.268l-8.028 8.028-7.884-7.884-.144-.144h-8.676l13.644 13.644 5.292 5.292.828.828v-6.12l13.644-13.644h-8.676Zm29.446 3.6c-2.34-2.34-5.436-3.636-8.748-3.636-2.772 0-5.4.9-7.596 2.592l-.432.36 4.356 4.356.324-.216a6.217 6.217 0 0 1 3.312-.936c1.656 0 3.204.648 4.392 1.836 1.188 1.188 1.836 2.736 1.836 4.392 0 1.188-.324 2.34-.936 3.312l-.216.324 4.356 4.356.36-.432a12.349 12.349 0 0 0 2.592-7.596c0-3.312-1.296-6.408-3.636-8.748l.036.036Zm-5.472 13.968a6.217 6.217 0 0 1-3.312.936c-1.656 0-3.204-.648-4.392-1.836-1.188-1.188-1.836-2.736-1.836-4.392 0-1.188.324-2.34.936-3.312l.216-.324-4.356-4.356-.36.432a12.349 12.349 0 0 0-2.592 7.596c0 3.312 1.296 6.408 3.636 8.748 2.34 2.34 5.436 3.636 8.748 3.636 2.772 0 5.4-.9 7.596-2.592l.432-.36-4.356-4.356-.36.18Zm31.288-17.568v12.384c0 1.656-.648 3.204-1.836 4.392a6.32 6.32 0 0 1-1.08.864l-.504.324 4.428 4.428.36-.252c1.44-1.116 2.628-2.592 3.456-4.248a12.301 12.301 0 0 0 1.296-5.544V1.232l-6.12.036Zm-5.832 18.54h-.432c-1.656 0-3.204-.648-4.392-1.836-1.188-1.188-1.836-2.736-1.836-4.392v-.684l-6.156-6.156v6.804c0 4.068 2.016 7.884 5.364 10.188a12.317 12.317 0 0 0 6.984 2.16c1.692 0 3.312-.324 4.86-.972l.684-.288-4.896-4.896-.18.072ZM331.044 1.16h-6.156v2.772l6.156 6.156V1.16Zm22.252-.144v15.12l5.148 5.148V1.016h-5.148Zm0 24.984h5.148v-.504l-5.148-5.148V26Z" fill="#05C2DF"/></svg>