<svg width="84" height="84" fill="none" xmlns="http://www.w3.org/2000/svg"><g clip-path="url('#clip0_1_5792')"><path d="M76.225 7.079v73.59H24.37v-1.86a1.916 1.916 0 1 0-3.832 0v1.86H8.327V27.842c0-.506.41-.916.915-.916H21.54V14.629c0-.506.41-.916.915-.916h4.748V7.08c0-.506.41-.916.915-.916h6.635V1.416a.916.916 0 1 1 1.831 0v4.747h6.635c.506 0 .916.41.916.916v6.634h3.832V7.08c0-.506.41-.916.915-.916H75.31c.506 0 .916.41.916.916ZM43 77.5V51.073M49 77.427V51M55 77.427V51" stroke="#05C2DF" stroke-linecap="round"/><path d="M57.323 16.517a1.166 1.166 0 1 1-2.332 0V14.63a1.166 1.166 0 1 1 2.332 0v1.887ZM62.986 16.517a1.166 1.166 0 1 1-2.332 0V14.63a1.166 1.166 0 1 1 2.332 0v1.887ZM68.65 16.517a1.166 1.166 0 1 1-2.332 0V14.63a1.166 1.166 0 1 1 2.332 0v1.887ZM57.323 25.955a1.166 1.166 0 1 1-2.332 0v-1.888a1.166 1.166 0 1 1 2.332 0v1.888ZM62.986 25.955a1.166 1.166 0 1 1-2.332 0v-1.888a1.166 1.166 0 1 1 2.332 0v1.888ZM68.65 25.955a1.166 1.166 0 1 1-2.332 0v-1.888a1.166 1.166 0 1 1 2.332 0v1.888ZM57.323 35.393a1.166 1.166 0 1 1-2.332 0v-1.888a1.166 1.166 0 1 1 2.332 0v1.888ZM62.986 35.393a1.166 1.166 0 1 1-2.332 0v-1.888a1.166 1.166 0 1 1 2.332 0v1.888ZM68.65 35.393a1.166 1.166 0 1 1-2.332 0v-1.888a1.166 1.166 0 1 1 2.332 0v1.888ZM17.683 39.169a1.166 1.166 0 1 1-2.331 0V37.28a1.166 1.166 0 1 1 2.331 0v1.888ZM23.346 39.169a1.166 1.166 0 1 1-2.331 0V37.28a1.166 1.166 0 1 1 2.331 0v1.888ZM29.008 39.169a1.165 1.165 0 1 1-2.331 0V37.28a1.166 1.166 0 1 1 2.331 0v1.888ZM17.683 48.607a1.166 1.166 0 1 1-2.331 0V46.72a1.166 1.166 0 1 1 2.331 0v1.888ZM23.346 48.607a1.166 1.166 0 1 1-2.331 0V46.72a1.166 1.166 0 1 1 2.331 0v1.888ZM29.008 48.607a1.165 1.165 0 1 1-2.331 0V46.72a1.166 1.166 0 1 1 2.331 0v1.888ZM17.683 58.045a1.166 1.166 0 1 1-2.331 0v-1.888a1.166 1.166 0 1 1 2.331 0v1.888ZM23.346 58.045a1.166 1.166 0 1 1-2.331 0v-1.888a1.166 1.166 0 1 1 2.331 0v1.888ZM29.008 58.045a1.165 1.165 0 1 1-2.331 0v-1.888a1.166 1.166 0 1 1 2.331 0v1.888ZM17.683 67.483a1.166 1.166 0 1 1-2.331 0v-1.888a1.166 1.166 0 1 1 2.331 0v1.888ZM23.346 67.483a1.166 1.166 0 1 1-2.331 0v-1.888a1.166 1.166 0 1 1 2.331 0v1.888ZM29.008 67.483a1.165 1.165 0 1 1-2.331 0v-1.888a1.166 1.166 0 1 1 2.331 0v1.888ZM68.65 44.832a1.166 1.166 0 1 1-2.332 0v-1.888a1.166 1.166 0 1 1 2.332 0v1.888ZM68.65 54.27a1.166 1.166 0 1 1-2.332 0v-1.888a1.166 1.166 0 1 1 2.332 0v1.888ZM68.65 63.708a1.166 1.166 0 1 1-2.332 0V61.82a1.166 1.166 0 1 1 2.332 0v1.888ZM68.65 73.146a1.166 1.166 0 1 1-2.332 0v-1.888a1.166 1.166 0 1 1 2.332 0v1.888Z" fill="#05C2DF" stroke="#05040B" stroke-width=".5" stroke-linecap="round"/><path d="M41.326 20H30" stroke="#05C2DF" stroke-linecap="round"/><path fill-rule="evenodd" clip-rule="evenodd" d="M56 42a1 1 0 0 0-1 1v1h2v-1a1 1 0 0 0-1-1ZM62 42a1 1 0 0 0-1 1v1h2v-1a1 1 0 0 0-1-1Z" fill="#05C2DF"/></g><defs><clipPath id="clip0_1_5792"><path fill="#fff" d="M0 0h84v84H0z"/></clipPath></defs></svg>