<svg width="83" height="83" fill="none" xmlns="http://www.w3.org/2000/svg"><g clip-path="url('#clip0_1_5837')" stroke="#05C2DF"><path d="M72.434 22.133a5.039 5.039 0 0 1 5.033-5.033 5.039 5.039 0 0 1 5.033 5.033 5.039 5.039 0 0 1-5.033 5.033 5.039 5.039 0 0 1-5.033-5.033ZM.5 67.783a5.039 5.039 0 0 1 5.033-5.033 5.039 5.039 0 0 1 5.034 5.033 5.039 5.039 0 0 1-5.034 5.034A5.039 5.039 0 0 1 .5 67.783ZM73.978 18.044 63.152 12.63M57.217 77.467a5.039 5.039 0 0 1 5.033-5.033 5.039 5.039 0 0 1 5.033 5.033A5.039 5.039 0 0 1 62.25 82.5a5.039 5.039 0 0 1-5.033-5.033ZM58.486 73.605l-10.13-5.4M36.467 42.883A5.039 5.039 0 0 1 41.5 37.85a5.039 5.039 0 0 1 5.033 5.033 5.039 5.039 0 0 1-5.033 5.033 5.039 5.039 0 0 1-5.033-5.033ZM38.253 38.613l-7.94-6.135M51.684 51.184c0-8.114 6.602-14.717 14.716-14.717 8.114 0 14.717 6.603 14.717 14.717 0 8.113-6.603 14.716-14.717 14.716s-14.716-6.603-14.716-14.717Z"/><path d="M61.366 47.033A5.039 5.039 0 0 1 66.4 42a5.039 5.039 0 0 1 5.033 5.033 5.039 5.039 0 0 1-5.034 5.034 5.039 5.039 0 0 1-5.033-5.034ZM73.759 63.916v-.001a.882.882 0 0 0 .44-.763v-3.647c0-2.012-1.686-3.672-3.786-3.672h-8.026c-2.101 0-3.787 1.66-3.787 3.67v3.647c0 .316.167.607.44.766H73.76Zm0 0a14.715 14.715 0 0 1-7.36 1.984c-2.57 0-5.116-.686-7.358-1.984h14.718ZM18.483 67.783c0-8.114 6.603-14.717 14.717-14.717s14.717 6.603 14.717 14.717S41.314 82.5 33.2 82.5s-14.717-6.603-14.717-14.717Z"/><path d="M28.167 63.633A5.039 5.039 0 0 1 33.2 58.6a5.039 5.039 0 0 1 5.033 5.033 5.039 5.039 0 0 1-5.033 5.033 5.039 5.039 0 0 1-5.033-5.033ZM40.56 80.516A14.715 14.715 0 0 1 33.2 82.5c-2.571 0-5.116-.686-7.359-1.984a.884.884 0 0 1-.44-.765v-3.647c0-2.01 1.686-3.67 3.786-3.67h8.026c2.101 0 3.787 1.66 3.787 3.672v3.646a.882.882 0 0 1-.44.764ZM.5 33.2c0-8.114 6.603-14.717 14.717-14.717 8.113 0 14.716 6.603 14.716 14.717s-6.602 14.717-14.716 14.717C7.103 47.917.5 41.314.5 33.2Z"/><path d="M10.184 29.05a5.039 5.039 0 0 1 5.033-5.033 5.039 5.039 0 0 1 5.033 5.033 5.039 5.039 0 0 1-5.033 5.033 5.039 5.039 0 0 1-5.033-5.033ZM22.577 45.932a14.715 14.715 0 0 1-7.36 1.984c-2.572 0-5.116-.686-7.36-1.984a.884.884 0 0 1-.44-.765V41.52c0-2.01 1.686-3.67 3.787-3.67h8.026c2.1 0 3.787 1.66 3.787 3.672v3.646a.882.882 0 0 1-.44.764ZM33.7 15.217C33.7 7.103 40.303.5 48.417.5s14.716 6.603 14.717 14.717c0 8.114-6.603 14.716-14.717 14.716S33.7 23.331 33.7 15.217Z"/><path d="M43.383 11.066a5.039 5.039 0 0 1 5.033-5.033 5.04 5.04 0 0 1 5.033 5.034 5.039 5.039 0 0 1-5.033 5.033 5.039 5.039 0 0 1-5.033-5.034ZM55.776 27.95a14.715 14.715 0 0 1-7.36 1.984c-2.571 0-5.116-.686-7.359-1.984a.884.884 0 0 1-.44-.766v-3.646c0-2.01 1.685-3.67 3.786-3.67h8.026c2.101 0 3.787 1.66 3.787 3.671v3.647a.882.882 0 0 1-.44.763ZM33.404 14.435l-8.865 7.217M65.678 36.087l-7.217-9.743M52.114 56.296l-5.562 4.33M18.344 67.482h-7.518M20.25 5.533a5.039 5.039 0 0 1-5.033 5.034 5.039 5.039 0 0 1-5.033-5.034A5.039 5.039 0 0 1 15.217.5a5.039 5.039 0 0 1 5.033 5.033ZM14.073 10.826v7.218"/></g><defs><clipPath id="clip0_1_5837"><path fill="#fff" d="M0 0h83v83H0z"/></clipPath></defs></svg>