<svg width="20" height="15" fill="none" xmlns="http://www.w3.org/2000/svg"><path d="M7.355 14.67c-.819 0-1.661-.06-2.51-.178-1.492-.21-3.004-.91-3.431-1.12l-1.122-.55 1.214-.357c1.328-.391 2.136-.634 3.135-1.014-1-.434-1.772-1.215-2.144-2.225l-.282-.769.232.032c-.22-.199-.394-.4-.528-.583-.478-.65-.731-1.446-.678-2.128l.054-.67.448.155a3.508 3.508 0 0 1-.406-1.02c-.196-.873-.032-1.8.461-2.612l.39-.642.523.562c1.651 1.777 3.743 2.832 6.225 3.14a3.017 3.017 0 0 1 .226-1.772c.293-.631.814-1.166 1.506-1.547a4.942 4.942 0 0 1 2.625-.578c.98.054 1.87.383 2.577.953.345-.08.6-.167.943-.283.207-.07.442-.148.735-.239L18.63.89l-.706 1.805a3.98 3.98 0 0 1 .145-.008l1.155-.047-.683.836c-.039.047-.049.061-.063.08-.055.074-.123.167-1.06 1.288-.235.28-.352.646-.33 1.03.083 1.456-.116 2.774-.593 3.916a6.95 6.95 0 0 1-2.077 2.757c-1.147.926-2.61 1.56-4.348 1.883-.852.16-1.768.24-2.715.24Z" fill="#fff"/></svg>