<svg width="80" height="80" fill="none" xmlns="http://www.w3.org/2000/svg"><path d="M36.014 27.08v-7.011m16.632 14.295h8.11m-37.8 10.447h4.398M44.948 59.52v-7.01" stroke="#05C2DF"/><rect x="27.717" y="27.441" width="24.567" height="24.567" rx="3.5" stroke="#05C2DF"/><rect x="32.39" y="32.115" width="15.495" height="15.495" rx="3.5" stroke="#05C2DF"/><rect x="60.981" y=".5" width="18.519" height="18.519" rx="3.5" stroke="#05C2DF"/><rect x="65.38" y="4.898" width="9.997" height="9.997" rx="2.5" stroke="#05C2DF"/><rect x=".5" y=".5" width="18.519" height="18.519" rx="3.5" stroke="#05C2DF"/><rect x="4.898" y="4.898" width="9.997" height="9.997" rx="2.5" stroke="#05C2DF"/><rect x="1.325" y="60.431" width="18.519" height="18.519" rx="3.5" stroke="#05C2DF"/><rect x="5.724" y="64.83" width="9.997" height="9.997" rx="2.5" stroke="#05C2DF"/><rect x="60.981" y="60.431" width="18.519" height="18.519" rx="3.5" stroke="#05C2DF"/><rect x="65.38" y="64.83" width="9.997" height="9.997" rx="2.5" stroke="#05C2DF"/><path d="M45.224 27.08V9.896h15.12M27.354 37.113H9.896V19.52M52.784 40.962h17.182v18.97M36.563 52.509V69.69H20.206" stroke="#05C2DF"/><circle cx="36.013" cy="17.594" r="1.974" stroke="#05C2DF"/><circle cx="63.23" cy="34.364" r="1.974" stroke="#05C2DF"/><circle cx="20.619" cy="44.811" r="1.974" stroke="#05C2DF"/><circle cx="44.811" cy="61.856" r="1.974" stroke="#05C2DF"/></svg>