<svg width="346" height="46" fill="none" xmlns="http://www.w3.org/2000/svg"><path d="M31.518 37h-7.164l-4.752-16.254L14.85 37H7.686L.342 11.8h6.21l4.806 18.054 5.04-18.054h6.498l5.04 18.09 4.806-18.09h6.12L31.518 37Zm15.98-15.498h10.601V11.8h6.012V37H58.1v-9.936H47.497V37h-6.012V11.8h6.012v9.702Zm34.59 5.796V37h-6.03v-9.666L66.482 11.8h6.966L79.1 21.862 84.734 11.8h6.768l-9.414 15.498Z" fill="#fff"/><path d="M117.71 37h6.12v-7.92l-6.12-6.12V37Zm14.508-11.016 10.008-6.624.216-.144v-7.344l-14.652 9.684-9.792-9.324h-.288v7.884l16.848 16.848h8.676l-11.016-10.98ZM144.288 37h7.164l6.984-11.484-3.564-5.904L144.288 37Zm15.3-25.164-3.564 5.868 10.188 16.884 1.476 2.448h7.164l-15.264-25.2ZM183.811 37h6.12v-6.696l-6.12-6.12V37Zm-9.288-24.732v6.12h9.288v2.988l6.12 6.12v-9.108h9.324v-6.12h-24.732Zm52.478 18.612h-.936V12.268h-6.12V37h13.176l-5.976-5.976-.144-.144Zm2.808 0 6.12 6.12h1.224v-6.12h-7.344Zm32.08-15.012c-2.34-2.34-5.436-3.636-8.748-3.636-2.772 0-5.4.9-7.596 2.592l-.432.36 4.356 4.356.324-.216a6.217 6.217 0 0 1 3.312-.936c1.656 0 3.204.648 4.392 1.836 1.188 1.188 1.836 2.736 1.836 4.392 0 1.188-.324 2.34-.936 3.312l-.216.324 4.356 4.356.36-.432a12.349 12.349 0 0 0 2.592-7.596c0-3.312-1.296-6.408-3.636-8.748l.036.036Zm-5.472 13.968a6.217 6.217 0 0 1-3.312.936c-1.656 0-3.204-.648-4.392-1.836-1.188-1.188-1.836-2.736-1.836-4.392 0-1.188.324-2.34.936-3.312l.216-.324-4.356-4.356-.36.432a12.349 12.349 0 0 0-2.592 7.596c0 3.312 1.296 6.408 3.636 8.748 2.34 2.34 5.436 3.636 8.748 3.636 2.772 0 5.4-.9 7.596-2.592l.432-.36-4.356-4.356-.36.18Zm19.66-8.424a6.99 6.99 0 0 1 1.224-1.692 6.429 6.429 0 0 1 9.144 0 6.28 6.28 0 0 1 1.404 2.088l.144.288h6.48l-.144-.612a12.633 12.633 0 0 0-4.392-7.092 12.784 12.784 0 0 0-8.028-2.844c-4.176 0-8.1 2.052-10.476 5.472l-.252.324 4.644 4.644.252-.576Zm11.736 5.292a6.28 6.28 0 0 1-1.404 2.088 6.99 6.99 0 0 1-1.692 1.224c-.18.108-.36.18-.576.252a6.93 6.93 0 0 1-1.908.396c-.288 0-.612 0-.9-.036a6.35 6.35 0 0 1-4.032-1.836 6.35 6.35 0 0 1-1.836-4.032v-.18l-5.328-5.328-.252.756a13.159 13.159 0 0 0-.72 4.248c0 3.384 1.332 6.588 3.744 9s5.616 3.744 9 3.744c1.728 0 3.384-.324 4.968-.972.288-.108.576-.252.864-.396a12.735 12.735 0 0 0 4.212-3.492 12.599 12.599 0 0 0 2.376-5.004l.144-.612h-6.48l-.18.18Zm31.275-10.836c-2.34-2.34-5.436-3.636-8.748-3.636-2.772 0-5.4.9-7.596 2.592l-.432.36 4.356 4.356.324-.216a6.217 6.217 0 0 1 3.312-.936c1.656 0 3.204.648 4.392 1.836 1.188 1.188 1.836 2.736 1.836 4.392 0 1.188-.324 2.34-.936 3.312l-.216.324 4.356 4.356.36-.432a12.349 12.349 0 0 0 2.592-7.596c0-3.312-1.296-6.408-3.636-8.748l.036.036Zm-5.472 13.968a6.217 6.217 0 0 1-3.312.936c-1.656 0-3.204-.648-4.392-1.836-1.188-1.188-1.836-2.736-1.836-4.392 0-1.188.324-2.34.936-3.312l.216-.324-4.356-4.356-.36.432a12.349 12.349 0 0 0-2.592 7.596c0 3.312 1.296 6.408 3.636 8.748 2.34 2.34 5.436 3.636 8.748 3.636 2.772 0 5.4-.9 7.596-2.592l.432-.36-4.356-4.356-.36.18Zm19.66 1.008V37h5.328v-.828l-3.888-3.888-1.44-1.44Zm10.008-14.508c-1.296-3.24-4.464-5.544-8.172-5.544-4.752 0-8.64 3.744-8.856 8.424h5.364a3.505 3.505 0 0 1 3.492-3.06c.72 0 1.404.216 1.98.612a3.404 3.404 0 0 1 1.26 1.584c.18.396.252.828.252 1.296 0 .648-.18 1.188-.396 1.62l-4.932 4.932v.252l2.016 2.016 1.62 1.62 1.692 1.692v-3.384l1.44-1.44c.288-.18.576-.396.828-.612.324-.288.612-.576.9-.9 1.332-1.548 2.16-3.564 2.16-5.76a8.982 8.982 0 0 0-.612-3.276l-.036-.072Z" fill="#05C2DF"/><path d="M161 30h5v4h-8l3-4Z" fill="#05C2DF"/></svg>