<svg width="107" height="78" fill="none" xmlns="http://www.w3.org/2000/svg"><circle cx="53.654" cy="39.137" r="12.83" stroke="#05C2DF"/><path d="M67.317 25.508c4.418 2.922 7.332 7.935 7.332 13.629s-2.914 10.706-7.332 13.629M67.485 52.634l5.999 7.665" stroke="#05C2DF"/><path d="M73.316 60.465C80.344 55.856 84.98 47.95 84.98 38.97s-4.636-16.886-11.664-21.495l-5.999 8.165" stroke="#05C2DF"/><path d="M79.982 9.477c9.439 6.253 15.664 16.979 15.664 29.16 0 12.182-6.225 22.907-15.664 29.16" stroke="#05C2DF"/><path d="m79.982 9.644 5.999-8.498c12.25 8.075 20.328 21.926 20.328 37.658 0 15.731-8.079 29.583-20.328 37.658l-6.166-8.665M39.99 25.508c-4.419 2.922-7.332 7.935-7.332 13.629s2.913 10.706 7.331 13.629M39.824 52.634l-5.998 7.665" stroke="#05C2DF"/><path d="M33.99 60.465C26.963 55.856 22.328 47.95 22.328 38.97s4.635-16.886 11.664-21.495l5.998 8.165" stroke="#05C2DF"/><path d="M27.328 9.477c-9.438 6.253-15.663 16.979-15.663 29.16 0 12.182 6.225 22.907 15.663 29.16" stroke="#05C2DF"/><path d="m27.328 9.644-6-8.498C9.08 9.22 1 23.072 1 38.804 1 54.535 9.08 68.387 21.33 76.462l6.165-8.665" stroke="#05C2DF"/></svg>